{"asset":{"version":"2.0","generator":"Blockbench 4.12.5 glTF exporter"},"scenes":[{"nodes":[2],"name":"blockbench_export"}],"scene":0,"nodes":[{"name":"cuboid","mesh":0},{"rotation":[0,0,-0.3007057995042731,0.9537169507482269],"translation":[0.140625,0.890625,0],"name":"cylinder","mesh":1},{"children":[0,1]}],"bufferViews":[{"buffer":0,"byteOffset":0,"byteLength":456,"target":34962,"byteStride":12},{"buffer":0,"byteOffset":456,"byteLength":456,"target":34962,"byteStride":12},{"buffer":0,"byteOffset":912,"byteLength":304,"target":34962,"byteStride":8},{"buffer":0,"byteOffset":1216,"byteLength":108,"target":34963},{"buffer":0,"byteOffset":1324,"byteLength":408,"target":34962,"byteStride":12},{"buffer":0,"byteOffset":1732,"byteLength":408,"target":34962,"byteStride":12},{"buffer":0,"byteOffset":2140,"byteLength":272,"target":34962,"byteStride":8},{"buffer":0,"byteOffset":2412,"byteLength":96,"target":34963}],"buffers":[{"byteLength":2508,"uri":"data:application/octet-stream;base64,"}],"accessors":[{"bufferView":0,"componentType":5126,"count":38,"max":[0.3125,1.119655966758728,0.3125],"min":[-0.3125,0,-0.3125],"type":"VEC3"},{"bufferView":1,"componentType":5126,"count":38,"max":[1,0.8574929237365723,1],"min":[-1,-1,-1],"type":"VEC3"},{"bufferView":2,"componentType":5126,"count":38,"max":[0.9375,1],"min":[0,0],"type":"VEC2"},{"bufferView":3,"componentType":5123,"count":54,"max":[37],"min":[0],"type":"SCALAR"},{"bufferView":4,"componentType":5126,"count":34,"max":[0.10825317353010178,0.125,0.09375],"min":[-0.10825317353010178,0,-0.09375],"type":"VEC3"},{"bufferView":5,"componentType":5126,"count":34,"max":[0.8660253882408142,1,1],"min":[-0.8660253882408142,0,-1],"type":"VEC3"},{"bufferView":6,"componentType":5126,"count":34,"max":[0.9414065480232239,0.9375],"min":[0,0.6875],"type":"VEC2"},{"bufferView":7,"componentType":5123,"count":48,"max":[33],"min":[0],"type":"SCALAR"}],"materials":[{"pbrMetallicRoughness":{"metallicFactor":0,"roughnessFactor":1,"baseColorTexture":{"index":0}},"alphaMode":"MASK","alphaCutoff":0.05,"doubleSided":true}],"textures":[{"sampler":0,"source":0,"name":"texture"}],"samplers":[{"magFilter":9728,"minFilter":9728,"wrapS":33071,"wrapT":33071}],"images":[{"mimeType":"image/png","uri":"data:image/png;base64,"}],"meshes":[{"primitives":[{"mode":4,"attributes":{"POSITION":0,"NORMAL":1,"TEXCOORD_0":2},"indices":3,"material":0}]},{"primitives":[{"mode":4,"attributes":{"POSITION":4,"NORMAL":5,"TEXCOORD_0":6},"indices":7,"material":0}]}]}